Life in a middle-class neighborhood in present day Recife, Brazil, takes an unexpected turn after the arrival of an independent private security firm. The presence of these men brings a sense of safety and a good deal of anxiety to a culture which runs on fear. Meanwhile, Bia, married and mother of two, must find a way to deal with the constant barking and howling of her neighbor's dog. A slice of 'Braziliana', a reflection on history, violence and noise. Written by O Som ao Redor

SUBS: Spanish
 
http://www.imdb.com/title/tt2190367/

General 
Unique ID : 231485159060215725488584780778554362243 (0xAE266B81F18C49B6B25CE693F9F58983) 
Complete name : O Som Ao Redor.mkv 
Format : Matroska 
Format version : Version 4 / Version 2 
File size : 4.18 GiB 
Duration : 2h 11mn 
Overall bit rate : 4 568 Kbps 
Encoded date : UTC 2013-03-28 03:32:14 
Writing application : mkvmerge v6.1.0 ('Old Devil') built on Mar 2 2013 14:32:37 
Writing library : libebml v1.3.0 + libmatroska v1.4.0 

Video 
ID : 1 
Format : AVC 
Format/Info : Advanced Video Codec 
Format profile : Main@L3.1 
Format settings, CABAC : No 
Format settings, ReFrames : 2 frames 
Codec ID : V_MPEG4/ISO/AVC 
Duration : 2h 11mn 
Bit rate : 4 094 Kbps 
Width : 1 280 pixels 
Height : 534 pixels 
Display aspect ratio : 2.40:1 
Frame rate mode : Constant 
Frame rate : 23.976 fps 
Color space : YUV 
Chroma subsampling : 4:2:0 
Bit depth : 8 bits 
Scan type : Progressive 
Bits/(Pixel*Frame) : 0.250 
Stream size : 3.75 GiB (90%) 
Language : Portuguese 
Default : Yes 
Forced : No 
Color primaries : BT.709 
Transfer characteristics : BT.709 
Matrix coefficients : BT.709 

Audio 
ID : 2 
Format : AC-3 
Format/Info : Audio Coding 3 
Mode extension : CM (complete main) 
Format settings, Endianness : Big 
Codec ID : A_AC3 
Duration : 2h 11mn 
Bit rate mode : Constant 
Bit rate : 384 Kbps 
Channel(s) : 6 channels 
Channel positions : Front: L C R, Side: L R, LFE 
Sampling rate : 48.0 KHz 
Bit depth : 16 bits 
Compression mode : Lossy 
Stream size : 360 MiB (8%) 
Language : Portuguese 
Default : Yes 
Forced : No 

Menu 
00:00:00.000 : en:1 
00:08:55.000 : en:2 
00:18:48.000 : en:3 
00:28:10.000 : en:4 
00:38:18.000 : en:5 
00:50:35.000 : en:6 
01:02:00.000 : en:7 
01:11:56.000 : en:8 
01:21:39.000 : en:9 
01:31:27.000 : en:10 
01:41:41.000 : en:11 
01:51:51.000 : en:12 
02:00:02.000 : en:13 

